<svg xmlns="http://www.w3.org/2000/svg" aria-hidden="true" style="position:absolute;width:0;height:0;overflow:hidden">
  <defs>
    <symbol id="icon-app" viewBox="0 0 28 32">
      <path d="M5.261 24.204c0 .836.708 1.518 1.578 1.518h1.804v4.3c0 1.089.908 1.979 2.023 1.979 1.119 0 2.023-.886 2.023-1.979v-4.303h3.149v4.3c0 1.089.908 1.979 2.023 1.979 1.119 0 2.023-.886 2.023-1.979v-4.3h1.804c.871 0 1.578-.682 1.578-1.518V10.087H5.261v14.117zM18.49 2.773 20.153.452c.096-.136.074-.318-.056-.407-.13-.086-.315-.043-.411.093L17.96 2.552c-1.137-.432-2.404-.671-3.734-.671s-2.597.239-3.734.671L8.766.141C8.67.005 8.484-.041 8.355.048c-.13.086-.152.264-.056.407l1.663 2.321C7.317 3.962 5.465 6.208 5.227 8.833h18.005c-.245-2.628-2.101-4.875-4.742-6.06zm-8.065 3.66c-.197 0-.39-.056-.554-.162s-.292-.256-.367-.431a.936.936 0 0 1 .216-1.047 1.03 1.03 0 0 1 1.086-.208c.182.073.338.196.447.354s.168.344.168.534c-.001.255-.106.499-.293.679s-.44.281-.704.282zm7.72 0c-.197 0-.39-.056-.554-.162s-.292-.256-.367-.431a.936.936 0 0 1 .216-1.047 1.03 1.03 0 0 1 1.086-.208c.182.073.338.196.447.354s.168.344.168.534c-.001.255-.106.499-.293.679s-.44.281-.704.282zm8.277 3.597c-1.119 0-2.023.886-2.023 1.979v7.728c0 1.089.908 1.979 2.023 1.979 1.119 0 2.023-.886 2.023-1.979v-7.732c.004-1.093-.9-1.975-2.023-1.975zm-24.399 0C.904 10.03 0 10.916 0 12.009v7.728c0 1.089.908 1.979 2.023 1.979 1.119 0 2.023-.886 2.023-1.979v-7.732c0-1.093-.908-1.975-2.023-1.975z" />
    </symbol>
 <symbol id="icon-app2" viewBox="0 0 27 32">
<path d="M20.372 7.314c-2.88 0-4.098 1.384-6.104 1.384-2.057 0-3.626-1.374-6.122-1.374-2.444 0-5.050 1.502-6.704 4.060-2.324 3.609-1.929 10.405 1.833 16.194 1.347 2.072 3.144 4.396 5.501 4.422h0.043c2.049 0 2.658-1.351 5.478-1.367h0.043c2.778 0 3.335 1.359 5.376 1.359h0.042c2.359-0.025 4.251-2.6 5.598-4.665 0.969-1.485 1.328-2.23 2.072-3.91-5.444-2.081-6.318-9.851-0.934-12.829-1.643-2.071-3.952-3.271-6.129-3.271l0.007-0.003zM20.056 0c-1.659 0.111-3.593 1.147-4.727 2.502-1.027 1.227-1.872 3.048-1.541 4.813h0.133c1.766 0 3.574-1.044 4.629-2.383 1.018-1.274 1.788-3.079 1.507-4.932z"></path>
</symbol>
     <symbol id="icon-facebook" viewBox="0 0 40 40">
      <circle cx="20" cy="20" r="18" fill="transparent" />
      <path d="M24.5007 14.1298H21.6448C21.3063 14.1298 20.9303 14.5751 20.9303 15.1669V17.2292H24.5027L23.9624 20.1702H20.9303V28.9993H17.5598V20.1702H14.502V17.2292H17.5598V15.4994C17.5598 13.0175 19.2816 11.0007 21.6448 11.0007H24.5007V14.1298Z" fill="white" />
    </symbol>
      <symbol id="icon-facebook-hovered" viewBox="0 0 40 40">
      <path d="M24.5006 14.6298H25.0006V14.1298V11.0007V10.5007H24.5006H21.6447C18.9529 10.5007 17.0597 12.797 17.0597 15.4994V16.7292H14.5019H14.0019V17.2292V20.1702V20.6702H14.5019H17.0597V28.9993V29.4993H17.5597H20.9302H21.4302V28.9993V20.6702H23.9623H24.3788L24.4541 20.2606L24.9944 17.3195L25.1028 16.7292H24.5026H21.4302V15.1669C21.4302 14.9752 21.4916 14.8202 21.5633 14.7227C21.6145 14.6531 21.6518 14.6342 21.6612 14.6298H24.5006ZM1.5 20C1.5 9.7826 9.7826 1.5 20 1.5C30.2174 1.5 38.5 9.7826 38.5 20C38.5 30.2174 30.2174 38.5 20 38.5C9.7826 38.5 1.5 30.2174 1.5 20Z" fill="#06071b" />
      <path d="M24.5007 14.1298H21.6448C21.3063 14.1298 20.9303 14.5751 20.9303 15.1669V17.2292H24.5027L23.9624 20.1702H20.9303V28.9993H17.5598V20.1702H14.502V17.2292H17.5598V15.4994C17.5598 13.0175 19.2816 11.0007 21.6448 11.0007H24.5007V14.1298Z" stroke="transparent" stroke-width="2" />
    </symbol>

<symbol id="icon-twitter" viewBox="0 0 40 40">
      <path d="M20 1C9.50646 1 1 9.50646 1 20C1 30.4935 9.50646 39 20 39C30.4935 39 39 30.4935 39 20C39 9.50646 30.4935 1 20 1ZM27.7286 16.5642C27.7366 16.7265 27.7385 16.8888 27.7385 17.0471C27.7385 21.995 23.9761 27.697 17.0926 27.697C15.0586 27.7004 13.0669 27.1162 11.357 26.0147C11.6479 26.0503 11.9468 26.0642 12.2496 26.0642C14.0031 26.0642 15.6161 25.4684 16.8967 24.463C16.1163 24.4477 15.3602 24.1893 14.7337 23.7238C14.1071 23.2584 13.6414 22.6091 13.4015 21.8664C13.9619 21.9729 14.5392 21.9506 15.0897 21.801C14.2427 21.6298 13.481 21.1708 12.9338 20.502C12.3866 19.8333 12.0875 18.9958 12.0873 18.1317V18.0861C12.592 18.3652 13.1699 18.5354 13.7834 18.5552C12.9894 18.0266 12.4273 17.2147 12.2121 16.2854C11.9969 15.3561 12.1448 14.3797 12.6256 13.5558C13.5656 14.7117 14.7379 15.6572 16.0665 16.3312C17.3952 17.0053 18.8505 17.3928 20.3384 17.4686C20.1493 16.6657 20.2307 15.8228 20.57 15.0709C20.9093 14.319 21.4876 13.7003 22.2148 13.3109C22.9421 12.9216 23.7776 12.7834 24.5915 12.9179C25.4053 13.0524 26.152 13.452 26.7153 14.0546C27.5528 13.8889 28.356 13.5817 29.0903 13.1461C28.8112 14.0133 28.2268 14.7496 27.4456 15.2183C28.1875 15.129 28.9119 14.9295 29.595 14.6266C29.0933 15.3784 28.4612 16.0346 27.7286 16.5642Z" fill="transparent" stroke="transparent" />
      <path d="M27.4357 16.1589L27.216 16.3177L27.2292 16.5885C27.2365 16.7392 27.2385 16.8924 27.2385 17.0471C27.2385 21.7802 23.6424 27.197 17.0926 27.197L17.0917 27.197C15.8097 27.1991 14.5453 26.9562 13.3647 26.4877C14.8006 26.289 16.116 25.7116 17.2054 24.8563L18.3079 23.9906L16.9064 23.9631C16.2301 23.9498 15.5748 23.7259 15.0318 23.3225C14.7028 23.078 14.425 22.7751 14.2108 22.4312C14.5511 22.4226 14.8902 22.3733 15.2207 22.2835L15.1887 21.3109C14.4549 21.1625 13.7949 20.7649 13.3207 20.1854C13.006 19.8007 12.786 19.3517 12.6736 18.8742C13.0213 18.9798 13.3881 19.0427 13.7673 19.0549L15.5214 19.1115L14.0605 18.139C13.3726 17.681 12.8856 16.9776 12.6991 16.1725C12.5679 15.606 12.5925 15.0193 12.7637 14.4727C13.6466 15.4118 14.6872 16.1921 15.8403 16.7771C17.2314 17.4828 18.7551 17.8885 20.3129 17.968L20.9777 18.0019L20.8251 17.354C20.6612 16.6583 20.7317 15.928 21.0257 15.2766C21.3197 14.6251 21.8207 14.0891 22.4508 13.7517C23.0809 13.4144 23.8048 13.2947 24.5099 13.4112C25.215 13.5277 25.8619 13.8739 26.35 14.396L26.5398 14.599L26.8123 14.5451C27.164 14.4755 27.51 14.3825 27.8481 14.267C27.6531 14.4675 27.4317 14.6435 27.1883 14.7896L27.5054 15.7147C27.7022 15.691 27.8979 15.66 28.092 15.6219C27.8845 15.8135 27.6654 15.9929 27.4357 16.1589Z" fill="#ffffff" stroke="#ffffff" />
    </symbol>
    <symbol id="icon-twitter-hovered" viewBox="0 0 40 40">
      <path d="M20 1C9.50646 1 1 9.50646 1 20C1 30.4935 9.50646 39 20 39C30.4935 39 39 30.4935 39 20C39 9.50646 30.4935 1 20 1ZM27.7286 16.5642C27.7366 16.7265 27.7385 16.8888 27.7385 17.0471C27.7385 21.995 23.9761 27.697 17.0926 27.697C15.0586 27.7004 13.0669 27.1162 11.357 26.0147C11.6479 26.0503 11.9468 26.0642 12.2496 26.0642C14.0031 26.0642 15.6161 25.4684 16.8967 24.463C16.1163 24.4477 15.3602 24.1893 14.7337 23.7238C14.1071 23.2584 13.6414 22.6091 13.4015 21.8664C13.9619 21.9729 14.5392 21.9506 15.0897 21.801C14.2427 21.6298 13.481 21.1708 12.9338 20.502C12.3866 19.8333 12.0875 18.9958 12.0873 18.1317V18.0861C12.592 18.3652 13.1699 18.5354 13.7834 18.5552C12.9894 18.0266 12.4273 17.2147 12.2121 16.2854C11.9969 15.3561 12.1448 14.3797 12.6256 13.5558C13.5656 14.7117 14.7379 15.6572 16.0665 16.3312C17.3952 17.0053 18.8505 17.3928 20.3384 17.4686C20.1493 16.6657 20.2307 15.8228 20.57 15.0709C20.9093 14.319 21.4876 13.7003 22.2148 13.3109C22.9421 12.9216 23.7776 12.7834 24.5915 12.9179C25.4053 13.0524 26.152 13.452 26.7153 14.0546C27.5528 13.8889 28.356 13.5817 29.0903 13.1461C28.8112 14.0133 28.2268 14.7496 27.4456 15.2183C28.1875 15.129 28.9119 14.9295 29.595 14.6266C29.0933 15.3784 28.4612 16.0346 27.7286 16.5642Z" stroke="transparent" fill="#06071B" />
      <path d="M27.4357 16.1589L27.216 16.3177L27.2292 16.5885C27.2365 16.7392 27.2385 16.8924 27.2385 17.0471C27.2385 21.7802 23.6424 27.197 17.0926 27.197L17.0917 27.197C15.8097 27.1991 14.5453 26.9562 13.3647 26.4877C14.8006 26.289 16.116 25.7116 17.2054 24.8563L18.3079 23.9906L16.9064 23.9631C16.2301 23.9498 15.5748 23.7259 15.0318 23.3225C14.7028 23.078 14.425 22.7751 14.2108 22.4312C14.5511 22.4226 14.8902 22.3733 15.2207 22.2835L15.1887 21.3109C14.4549 21.1625 13.7949 20.7649 13.3207 20.1854C13.006 19.8007 12.786 19.3517 12.6736 18.8742C13.0213 18.9798 13.3881 19.0427 13.7673 19.0549L15.5214 19.1115L14.0605 18.139C13.3726 17.681 12.8856 16.9776 12.6991 16.1725C12.5679 15.606 12.5925 15.0193 12.7637 14.4727C13.6466 15.4118 14.6872 16.1921 15.8403 16.7771C17.2314 17.4828 18.7551 17.8885 20.3129 17.968L20.9777 18.0019L20.8251 17.354C20.6612 16.6583 20.7317 15.928 21.0257 15.2766C21.3197 14.6251 21.8207 14.0891 22.4508 13.7517C23.0809 13.4144 23.8048 13.2947 24.5099 13.4112C25.215 13.5277 25.8619 13.8739 26.35 14.396L26.5398 14.599L26.8123 14.5451C27.164 14.4755 27.51 14.3825 27.8481 14.267C27.6531 14.4675 27.4317 14.6435 27.1883 14.7896L27.5054 15.7147C27.7022 15.691 27.8979 15.66 28.092 15.6219C27.8845 15.8135 27.6654 15.9929 27.4357 16.1589Z" stroke="transparent" fill="#06071B" />
    </symbol>

    <symbol id="icon-linkedin" viewBox="0 0 40 40">
      <path d="M15.349 28.3751H15.849V27.8751V15.4934V14.9934H15.349H11.5015H11.0015V15.4934V27.8751V28.3751H11.5015H15.349ZM15.9756 12.0477H15.9757L15.9755 12.0368C15.9611 11.3785 15.7217 10.7697 15.2715 10.324C14.8194 9.87643 14.1877 9.62594 13.4509 9.62594C12.7157 9.62594 12.0741 9.87523 11.6134 10.3194C11.1526 10.7636 10.9005 11.3766 10.9005 12.0477C10.9005 13.3886 11.9101 14.4734 13.4015 14.4734C14.1611 14.4734 14.81 14.2178 15.2715 13.7679C15.7319 13.3189 15.9756 12.7053 15.9756 12.0477ZM29.401 28.3751H29.901V27.8751V20.5542C29.901 18.6484 29.4044 17.1796 28.5074 16.1819C27.6053 15.1785 26.3527 14.7124 24.9717 14.7124C23.3647 14.7124 22.2038 15.3621 21.456 16.0657L21.392 15.4405L21.346 14.9915H20.8946H17.5518H17.0281L17.0523 15.5146C17.1036 16.6233 17.1527 17.9071 17.1527 19.4419V27.8731V28.3731H17.6527H21.5022H22.0022V27.8731V20.7343C22.0022 20.3818 22.0313 20.1139 22.0935 19.9619L22.0936 19.9619L22.0959 19.9561C22.3308 19.3613 22.82 18.8316 23.6041 18.8316C24.1475 18.8316 24.4717 19.0311 24.6844 19.3506C24.9192 19.7032 25.0535 20.2586 25.0535 21.0133V27.8751V28.3751H25.5535H29.401ZM1.5 20C1.5 9.7826 9.7826 1.5 20 1.5C30.2174 1.5 38.5 9.7826 38.5 20C38.5 30.2174 30.2174 38.5 20 38.5C9.7826 38.5 1.5 30.2174 1.5 20Z" fill="transparent" stroke="transparent" />
      <path d="M28.9009 20.5542V27.3751H26.0534V21.0134C26.0534 20.1709 25.9087 19.3854 25.5166 18.7964C25.1024 18.1743 24.4518 17.8316 23.6039 17.8316C22.2638 17.8316 21.4906 18.7683 21.1667 19.586C21.0243 19.9362 21.0021 20.3793 21.0021 20.7343V27.3732H18.1526V19.4419C18.1526 18.1224 18.1168 16.9866 18.0744 15.9915H20.443L20.5732 17.2623L20.6192 17.7114H21.0706H21.1478H21.4243L21.5713 17.4771C22.0107 16.7768 23.1086 15.7124 24.9715 15.7124C26.1218 15.7124 27.0839 16.0944 27.7637 16.8505C28.4485 17.6123 28.9009 18.8144 28.9009 20.5542ZM14.8488 27.3751H12.0013V15.9935H14.8488V27.3751ZM13.4013 13.4735C12.4623 13.4735 11.9004 12.8364 11.9004 12.0477C11.9004 11.6323 12.0531 11.2844 12.3073 11.0394C12.5615 10.7943 12.9451 10.626 13.4508 10.626C13.9549 10.626 14.3238 10.7931 14.5678 11.0347C14.8128 11.2772 14.9649 11.6274 14.9755 12.0532C14.9742 12.458 14.8262 12.8053 14.5733 13.0519C14.3202 13.2986 13.9321 13.4735 13.4013 13.4735Z" fill="#ffffff" stroke="#ffffff" />
    </symbol>
    
    <symbol id="icon-linkedin-hovered" viewBox="0 0 40 40">
      <path d="M15.349 28.3751H15.849V27.8751V15.4934V14.9934H15.349H11.5015H11.0015V15.4934V27.8751V28.3751H11.5015H15.349ZM15.9756 12.0477H15.9757L15.9755 12.0368C15.9611 11.3785 15.7217 10.7697 15.2715 10.324C14.8194 9.87643 14.1877 9.62594 13.4509 9.62594C12.7157 9.62594 12.0741 9.87523 11.6134 10.3194C11.1526 10.7636 10.9005 11.3766 10.9005 12.0477C10.9005 13.3886 11.9101 14.4734 13.4015 14.4734C14.1611 14.4734 14.81 14.2178 15.2715 13.7679C15.7319 13.3189 15.9756 12.7053 15.9756 12.0477ZM29.401 28.3751H29.901V27.8751V20.5542C29.901 18.6484 29.4044 17.1796 28.5074 16.1819C27.6053 15.1785 26.3527 14.7124 24.9717 14.7124C23.3647 14.7124 22.2038 15.3621 21.456 16.0657L21.392 15.4405L21.346 14.9915H20.8946H17.5518H17.0281L17.0523 15.5146C17.1036 16.6233 17.1527 17.9071 17.1527 19.4419V27.8731V28.3731H17.6527H21.5022H22.0022V27.8731V20.7343C22.0022 20.3818 22.0313 20.1139 22.0935 19.9619L22.0936 19.9619L22.0959 19.9561C22.3308 19.3613 22.82 18.8316 23.6041 18.8316C24.1475 18.8316 24.4717 19.0311 24.6844 19.3506C24.9192 19.7032 25.0535 20.2586 25.0535 21.0133V27.8751V28.3751H25.5535H29.401ZM1.5 20C1.5 9.7826 9.7826 1.5 20 1.5C30.2174 1.5 38.5 9.7826 38.5 20C38.5 30.2174 30.2174 38.5 20 38.5C9.7826 38.5 1.5 30.2174 1.5 20Z" stroke="transparent" fill="#06071B" />
      <path d="M28.9009 20.5542V27.3751H26.0534V21.0134C26.0534 20.1709 25.9087 19.3854 25.5166 18.7964C25.1024 18.1743 24.4518 17.8316 23.6039 17.8316C22.2638 17.8316 21.4906 18.7683 21.1667 19.586C21.0243 19.9362 21.0021 20.3793 21.0021 20.7343V27.3732H18.1526V19.4419C18.1526 18.1224 18.1168 16.9866 18.0744 15.9915H20.443L20.5732 17.2623L20.6192 17.7114H21.0706H21.1478H21.4243L21.5713 17.4771C22.0107 16.7768 23.1086 15.7124 24.9715 15.7124C26.1218 15.7124 27.0839 16.0944 27.7637 16.8505C28.4485 17.6123 28.9009 18.8144 28.9009 20.5542ZM14.8488 27.3751H12.0013V15.9935H14.8488V27.3751ZM13.4013 13.4735C12.4623 13.4735 11.9004 12.8364 11.9004 12.0477C11.9004 11.6323 12.0531 11.2844 12.3073 11.0394C12.5615 10.7943 12.9451 10.626 13.4508 10.626C13.9549 10.626 14.3238 10.7931 14.5678 11.0347C14.8128 11.2772 14.9649 11.6274 14.9755 12.0532C14.9742 12.458 14.8262 12.8053 14.5733 13.0519C14.3202 13.2986 13.9321 13.4735 13.4013 13.4735Z" stroke="transparent" fill="#06071B" />
    </symbol>
    <symbol id="icon-menu-open" viewBox="0 0 47 32">
    <path stroke-linejoin="round" stroke-linecap="round" stroke-miterlimit="4" stroke-width="4.3636" d="M1.96 29.154h42.965M1.96 15.615h42.965M1.96 2.077h42.965"></path>
    </symbol>
    
      </defs>
</svg>
