<svg aria-hidden="true" style="position: absolute; width: 0; height: 0; overflow: hidden;" version="1.1" xmlns="http://www.w3.org/2000/svg" xmlns:xlink="http://www.w3.org/1999/xlink">
<defs>
<symbol id="icon-twitter-normal" viewBox="0 0 38 32">
<path fill="#fff" style="fill: var(--color1, #fff)" d="M38.046 1.067c-1.579 1.111-3.328 1.963-5.178 2.522-1.361-1.56-3.353-2.54-5.573-2.54-4.078 0-7.383 3.306-7.383 7.383 0 0.036 0 0.072 0.001 0.107l-0-0.005v1.649c-0.136 0.004-0.297 0.006-0.457 0.006-5.922 0-11.16-2.929-14.343-7.418l-0.037-0.055s-6.594 14.833 8.243 21.425c-3.020 2.075-6.755 3.313-10.779 3.313-0.268 0-0.535-0.006-0.801-0.016l0.038 0.001c14.837 8.243 32.971 0 32.971-18.957 0-0.461-0.045-0.917-0.132-1.37 1.635-1.612 2.836-3.661 3.412-5.958l0.019-0.088z"></path>
</symbol>
<symbol id="icon-twitter-hovered" viewBox="0 0 38 32">
<path stroke-linejoin="round" stroke-linecap="round" stroke-miterlimit="4" stroke-width="2" d="M35.668 3c-1.48 1.042-3.12 1.84-4.854 2.364-1.276-1.462-3.143-2.381-5.225-2.381-3.823 0-6.922 3.099-6.922 6.922 0 0.034 0 0.067 0.001 0.1l-0-0.005v1.546c-0.128 0.004-0.278 0.006-0.429 0.006-5.552 0-10.462-2.746-13.447-6.954l-0.034-0.051s-6.182 13.906 7.728 20.088c-2.83 1.944-6.331 3.104-10.102 3.104-0.252 0-0.504-0.005-0.753-0.015l0.036 0.001c13.91 7.728 30.91 0 30.91-17.772 0-0.432-0.042-0.86-0.124-1.284 1.533-1.511 2.658-3.432 3.199-5.586l0.017-0.082z"></path>
</symbol>
</defs>
</svg>
